<svg xmlns="http://www.w3.org/2000/svg" viewBox="0 0 335 215">
  <path d="M167.5 0C167.5 0 120 50 80 100C60 125 30 150 0 170C0 170 50 215 100 180C130 160 145 130 155 110C160 100 165 95 170 100L250 10C260 0 270 0 280 5L335 50L280 0C250 -5 220 10 200 35L167.5 75L155 55C145 40 130 25 110 15L167.5 0Z" fill="#004225"/>
  <path d="M0 170C0 170 50 215 100 180C130 160 145 130 155 110C160 100 165 95 170 100C175 105 185 95 200 75L240 25C255 5 275 -5 295 0L335 15L335 50L280 5C270 0 260 0 250 10L170 100C165 95 160 100 155 110C145 130 130 160 100 180C50 215 0 170 0 170Z" fill="#004225"/>
</svg>
